<svg id="Layer_3" enable-background="new 0 0 64 64" height="512" viewBox="0 0 64 64" width="512" xmlns="http://www.w3.org/2000/svg"><path d="m11 44h42v14h-42z" fill="#815643"/><path d="m7 40h4v18h-4z" fill="#c18e59"/><path d="m53 44h4v18h-4z" fill="#c18e59"/><path d="m11 40h46v4h-46z" fill="#976947"/><path d="m7 58h46v4h-46z" fill="#976947"/><path d="m30 23h4v17h-4z" fill="#c18e59"/><path d="m28 16v7h8v-7" fill="#8892a0"/><path d="m2 16v-1.117c0-1.722 1.102-3.25 2.735-3.795l27.265-9.088 27.265 9.088c1.633.545 2.735 2.073 2.735 3.795v1.117" fill="#2b74ca"/><path d="m42 17v-1.68c0-1.493-.556-2.932-1.56-4.036l-8.44-9.284-8.44 9.284c-1.004 1.104-1.56 2.543-1.56 4.036v1.68" fill="#3d98f7"/><path d="m1 61h62v2h-62z"/><path d="m4 39h56v2h-56z"/><path d="m6 40h2v22h-2z"/><path d="m56 40h2v22h-2z"/><path d="m11 43h46v2h-46z"/><path d="m52 44h2v18h-2z"/><path d="m7 57h46v2h-46z"/><path d="m10 40h2v18h-2z"/><path d="m16 44h2v14h-2z"/><path d="m22 44h2v14h-2z"/><path d="m28 44h2v14h-2z"/><path d="m34 44h2v14h-2z"/><path d="m40 44h2v14h-2z"/><path d="m46 44h2v14h-2z"/><path d="m13 20h-2v-2c0-.551-.449-1-1-1h-6c-.551 0-1 .449-1 1v2h-2v-2c0-1.654 1.346-3 3-3h6c1.654 0 3 1.346 3 3z"/><path d="m23 20h-2v-2c0-.551-.449-1-1-1h-6c-.551 0-1 .449-1 1v2h-2v-2c0-1.654 1.346-3 3-3h6c1.654 0 3 1.346 3 3z"/><path d="m33 20h-2v-2c0-.551-.449-1-1-1h-6c-.551 0-1 .449-1 1v2h-2v-2c0-1.654 1.346-3 3-3h6c1.654 0 3 1.346 3 3z"/><path d="m43 20h-2v-2c0-.551-.449-1-1-1h-6c-.551 0-1 .449-1 1v2h-2v-2c0-1.654 1.346-3 3-3h6c1.654 0 3 1.346 3 3z"/><path d="m53 20h-2v-2c0-.551-.449-1-1-1h-6c-.551 0-1 .449-1 1v2h-2v-2c0-1.654 1.346-3 3-3h6c1.654 0 3 1.346 3 3z"/><path d="m63 20h-2v-2c0-.551-.449-1-1-1h-6c-.551 0-1 .449-1 1v2h-2v-2c0-1.654 1.346-3 3-3h6c1.654 0 3 1.346 3 3z"/><path d="m63 18h-2v-3.117c0-1.293-.824-2.437-2.051-2.846l-26.949-8.983-26.949 8.983c-1.227.409-2.051 1.553-2.051 2.846v3.117h-2v-3.117c0-2.155 1.374-4.062 3.418-4.743l27.265-9.088c.206-.068.427-.068.633 0l27.265 9.088c2.045.681 3.419 2.588 3.419 4.743z"/><path d="m36 24h-8c-.552 0-1-.448-1-1v-7h2v6h6v-6h2v7c0 .552-.448 1-1 1z"/><path d="m29 23h2v17h-2z"/><path d="m33 23h2v17h-2z"/><path d="m13 37c-.315 0-.611-.148-.8-.4l-3-4c-.228-.303-.264-.708-.095-1.047s.516-.553.895-.553h6c.379 0 .725.214.895.553s.133.744-.095 1.047l-3 4c-.189.252-.485.4-.8.4zm-1-4 1 1.333 1-1.333z"/><path d="m12 36h2v4h-2z"/><path d="m23 37c-.315 0-.611-.148-.8-.4l-3-4c-.228-.303-.264-.708-.095-1.047s.516-.553.895-.553h6c.379 0 .725.214.895.553s.133.744-.095 1.047l-3 4c-.189.252-.485.4-.8.4zm-1-4 1 1.333 1-1.333z"/><path d="m22 36h2v4h-2z"/><path d="m23 17h-2v-1.68c0-1.746.646-3.418 1.821-4.709l8.439-9.284 1.479 1.346-8.439 9.284c-.838.922-1.3 2.117-1.3 3.363z"/><path d="m43 17h-2v-1.68c0-1.247-.462-2.441-1.3-3.363l-8.44-9.284 1.479-1.346 8.439 9.284c1.176 1.291 1.822 2.963 1.822 4.709z"/></svg>